<svg width="242" height="116" viewBox="0 0 242 116" fill="none" xmlns="http://www.w3.org/2000/svg">
<path fill-rule="evenodd" clip-rule="evenodd" d="M22.8885 64.7056L0.399994 1.37442H17.2886L28.4884 37.4245C29.7328 41.4103 30.8883 47.6106 30.8883 47.6106H31.0661C31.0661 47.6106 32.2216 41.4103 33.466 37.4245L44.8436 1.37442H61.4655L39.0659 64.7056H22.8885ZM64.9575 32.6414C64.9575 14.4835 79.0017 0.311523 98.2013 0.311523C117.401 0.311523 131.445 14.4835 131.445 32.6414C131.445 51.2422 117.401 65.7685 98.2013 65.7685C79.0017 65.7685 64.9575 51.2422 64.9575 32.6414ZM81.0461 32.6414C81.0461 43.4476 88.6904 51.5965 98.2013 51.5965C107.712 51.5965 115.357 43.4476 115.357 32.6414C115.357 22.2781 107.712 14.4835 98.2013 14.4835C88.6904 14.4835 81.0461 22.2781 81.0461 32.6414ZM155.47 64.7056V14.6607H136.182V1.37442H190.314V14.6607H171.025V64.7056H155.47ZM199.406 64.7056V1.37442H239.227V14.6607H214.961V26.1754H234.338V39.4617H214.961V51.4193H240.472V64.7056H199.406Z" fill="#031750"/>
<path d="M111.864 110.837H77.0725V113.317H111.864V110.837Z" fill="#031750"/>
<path d="M111.864 79.6345H77.0725V82.1146H111.864V79.6345Z" fill="#031750"/>
<path fill-rule="evenodd" clip-rule="evenodd" d="M77.4946 97.4646C77.4946 92.3763 81.9935 88.05 86.9199 88.05C91.5088 88.05 94.5006 90.9865 94.5006 95.0437C94.5006 100.222 89.9117 104.615 85.0528 104.615C80.4414 104.615 77.4946 101.612 77.4946 97.4646ZM81.5436 97.2405C81.5436 99.5045 83.0058 101.029 85.0978 101.029C87.7297 101.029 90.429 98.5182 90.429 95.2903C90.429 93.0936 88.9669 91.6366 86.8749 91.6366C84.1755 91.6366 81.5436 94.1023 81.5436 97.2405ZM96.1331 104.346L99.2598 88.319H105.243C106.121 88.319 106.931 88.4311 107.605 88.7001C109.113 89.3053 110.012 90.583 110.012 92.3763C110.012 94.2816 109.113 96.837 106.661 97.8009V97.8457C106.661 97.8457 106.818 98.1147 107.065 98.8096L109.135 104.346H104.906L103.106 98.9441H101.127L100.07 104.346H96.1331ZM101.779 95.5817H103.466C104.861 95.5817 105.963 94.7075 105.963 93.116C105.963 92.1745 105.333 91.6814 104.321 91.6814H102.544L101.779 95.5817Z" fill="#031750"/>
<path fill-rule="evenodd" clip-rule="evenodd" d="M14.7098 115.016V74.9482H24.5513V115.016H14.7098ZM34.8024 115.016V74.9482H44.7564L55.8912 93.6654C57.4659 96.2992 59.2655 100.502 59.2655 100.502H59.3779C59.3779 100.502 58.928 96.1871 58.928 93.6654V74.9482H68.7695V115.016H58.8718L47.6807 96.3552C46.106 93.7214 44.3065 89.5185 44.3065 89.5185H44.194C44.194 89.5185 44.6439 93.8335 44.6439 96.3552V115.016H34.8024Z" fill="#031750"/>
<path fill-rule="evenodd" clip-rule="evenodd" d="M119.534 94.7297C119.534 83.2417 128.419 74.2754 140.567 74.2754C152.714 74.2754 161.599 83.2417 161.599 94.7297C161.599 106.498 152.714 115.688 140.567 115.688C128.419 115.688 119.534 106.498 119.534 94.7297ZM129.713 94.7297C129.713 101.567 134.549 106.722 140.567 106.722C146.584 106.722 151.42 101.567 151.42 94.7297C151.42 88.1731 146.584 83.2417 140.567 83.2417C134.549 83.2417 129.713 88.1731 129.713 94.7297ZM168.532 100.278V74.9479H178.374V100.278C178.374 104.481 181.129 106.722 185.347 106.722C189.565 106.722 192.32 104.481 192.32 100.278V74.9479H202.162V100.278C202.162 109.3 195.526 115.688 185.403 115.688C175.168 115.688 168.532 109.3 168.532 100.278ZM219.555 115.016V83.3538H207.352V74.9479H241.6V83.3538H229.397V115.016H219.555Z" fill="#031750"/>
</svg>
